<svg
xmlns="http://www.w3.org/2000/svg"
width="310"
height="260"
version="1"
>
<g
  fill="#454545"
  fillOpacity="1"
  stroke="none"
  transform="translate(2.442 -204.566)"
>
  <path
    fill="#454545"
    fillOpacity="1"
    fillRule="evenodd"
    stroke="none"
    strokeLinecap="butt"
    strokeLinejoin="miter"
    strokeMiterlimit="4"
    strokeOpacity="1"
    strokeWidth="1.223"
    d="M-53.583-415.359c-13.726-.485-25.554 3.956-32.849 19.907l-26.336 65.945c-19.19 5.29-27.543 19.228-27.985 30.664v86.346h25.306v29.057c-1.226 27.692 44.157 28.762 45.172-.289l.536-28.52H94.42l.536 28.52c1.015 29.051 46.44 27.981 45.213.289v-29.057h25.265v-86.346c-.443-11.436-8.796-25.374-27.985-30.664l-26.337-65.945c-7.294-15.95-19.122-20.392-32.848-19.907H-53.583zm3.009 22.875a79.07 79.07 0 013.585.082l119.071.371c10.898-.254 15.52 0 20.155 10.304l18.959 51.107-197.504-.247 18.753-49.747c2.924-9.958 8.944-11.826 16.98-11.87zm-41.463 87.459c11.804 0 21.39 9.546 21.39 21.35 0 11.803-9.586 21.39-21.39 21.39-11.803 0-21.39-9.587-21.39-21.39 0-11.804 9.587-21.35 21.39-21.35zm209.95 0c11.804 0 21.35 9.546 21.35 21.35 0 11.803-9.546 21.39-21.35 21.39-11.803 0-21.39-9.587-21.39-21.39 0-11.804 9.587-21.35 21.39-21.35zm-14.691-28.119zm0 0a16.885 16.885 0 00-.42-2.07c-1.105-4.32-2.584-6.948-5.758-10.165-3.086-3.129-6.556-5.047-10.616-5.908-3.986-.845-40.955-.847-44.953 0-7.59 1.608-14.095 7.94-16.104 15.654-.085.325-.17 1.23-.24 2.4l78.09.09zm-39.046-55.869c-6.085.01-12.162 3.175-15.294 9.537-1.254 2.547-1.35 2.953-1.35 7.227 0 4.224.088 4.719 1.29 7.257 2.173 4.586 5.26 7.313 10.226 9.087 1.55.553 2.993.727 5.818.63 3.367-.117 4.06-.307 6.838-1.68 3.577-1.768 6.203-4.396 7.977-8.007 1.055-2.15 1.14-2.726 1.14-7.077 0-4.524-.056-4.838-1.35-7.467-3.127-6.35-9.21-9.517-15.295-9.507z"
    transform="matrix(.97979 0 0 .9878 140.467 619.89)"
  ></path>
</g>
</svg>